<mxfile host="app.diagrams.net" modified="2021-05-31T02:31:43.616Z" agent="5.0 (Windows NT 10.0; Win64; x64) AppleWebKit/537.36 (KHTML, like Gecko) Chrome/91.0.4472.77 Safari/537.36 Edg/91.0.864.37" etag="TeiYdm4TK3aScXF5_dqM" version="14.7.2" type="github">
  <diagram id="P2Q_VfEs0zEKCsMYETC9" name="第 1 页">
    <mxGraphModel dx="852" dy="1014" grid="0" gridSize="10" guides="1" tooltips="1" connect="1" arrows="1" fold="1" page="0" pageScale="1" pageWidth="827" pageHeight="1169" math="0" shadow="0">
      <root>
        <mxCell id="0" />
        <mxCell id="1" parent="0" />
        <mxCell id="aUpF9cuh66uXq_9mSWLE-1" value="" style="rounded=0;whiteSpace=wrap;html=1;sketch=1;hachureGap=4;pointerEvents=0;fontFamily=Architects Daughter;fontSource=https%3A%2F%2Ffonts.googleapis.com%2Fcss%3Ffamily%3DArchitects%2BDaughter;fontSize=20;" vertex="1" parent="1">
          <mxGeometry x="43" y="91" width="105" height="43" as="geometry" />
        </mxCell>
        <mxCell id="aUpF9cuh66uXq_9mSWLE-2" value="液晶模块" style="text;html=1;align=center;verticalAlign=middle;resizable=0;points=[];autosize=1;strokeColor=none;sketch=1;hachureGap=4;pointerEvents=0;fontFamily=Architects Daughter;fontSource=https%3A%2F%2Ffonts.googleapis.com%2Fcss%3Ffamily%3DArchitects%2BDaughter;fontSize=20;" vertex="1" parent="1">
          <mxGeometry x="50.5" y="99" width="90" height="27" as="geometry" />
        </mxCell>
        <mxCell id="aUpF9cuh66uXq_9mSWLE-4" value="" style="rounded=0;whiteSpace=wrap;html=1;sketch=1;hachureGap=4;pointerEvents=0;fontFamily=Architects Daughter;fontSource=https%3A%2F%2Ffonts.googleapis.com%2Fcss%3Ffamily%3DArchitects%2BDaughter;fontSize=20;" vertex="1" parent="1">
          <mxGeometry x="48" y="168" width="103" height="44" as="geometry" />
        </mxCell>
        <mxCell id="aUpF9cuh66uXq_9mSWLE-7" value="人体感应" style="text;html=1;align=center;verticalAlign=middle;resizable=0;points=[];autosize=1;strokeColor=none;sketch=1;hachureGap=4;pointerEvents=0;fontFamily=Architects Daughter;fontSource=https%3A%2F%2Ffonts.googleapis.com%2Fcss%3Ffamily%3DArchitects%2BDaughter;fontSize=20;" vertex="1" parent="1">
          <mxGeometry x="54.5" y="176.5" width="90" height="27" as="geometry" />
        </mxCell>
        <mxCell id="aUpF9cuh66uXq_9mSWLE-10" value="WIFI模块" style="rounded=0;whiteSpace=wrap;html=1;sketch=1;hachureGap=4;pointerEvents=0;fontFamily=Architects Daughter;fontSource=https%3A%2F%2Ffonts.googleapis.com%2Fcss%3Ffamily%3DArchitects%2BDaughter;fontSize=20;" vertex="1" parent="1">
          <mxGeometry x="48" y="242" width="105" height="43" as="geometry" />
        </mxCell>
        <mxCell id="aUpF9cuh66uXq_9mSWLE-11" value="手机APP" style="rounded=0;whiteSpace=wrap;html=1;sketch=1;hachureGap=4;pointerEvents=0;fontFamily=Architects Daughter;fontSource=https%3A%2F%2Ffonts.googleapis.com%2Fcss%3Ffamily%3DArchitects%2BDaughter;fontSize=20;" vertex="1" parent="1">
          <mxGeometry x="48" y="319" width="105" height="43" as="geometry" />
        </mxCell>
        <mxCell id="aUpF9cuh66uXq_9mSWLE-12" value="stm32" style="rounded=0;whiteSpace=wrap;html=1;sketch=1;hachureGap=4;pointerEvents=0;fontFamily=Architects Daughter;fontSource=https%3A%2F%2Ffonts.googleapis.com%2Fcss%3Ffamily%3DArchitects%2BDaughter;fontSize=20;" vertex="1" parent="1">
          <mxGeometry x="164" y="92" width="99" height="270" as="geometry" />
        </mxCell>
        <mxCell id="aUpF9cuh66uXq_9mSWLE-13" value="按键电路" style="rounded=0;whiteSpace=wrap;html=1;sketch=1;hachureGap=4;pointerEvents=0;fontFamily=Architects Daughter;fontSource=https%3A%2F%2Ffonts.googleapis.com%2Fcss%3Ffamily%3DArchitects%2BDaughter;fontSize=20;" vertex="1" parent="1">
          <mxGeometry x="283" y="92" width="105" height="43" as="geometry" />
        </mxCell>
        <mxCell id="aUpF9cuh66uXq_9mSWLE-14" value="驱动器" style="rounded=0;whiteSpace=wrap;html=1;sketch=1;hachureGap=4;pointerEvents=0;fontFamily=Architects Daughter;fontSource=https%3A%2F%2Ffonts.googleapis.com%2Fcss%3Ffamily%3DArchitects%2BDaughter;fontSize=20;" vertex="1" parent="1">
          <mxGeometry x="285" y="166" width="103" height="44" as="geometry" />
        </mxCell>
        <mxCell id="aUpF9cuh66uXq_9mSWLE-15" value="步进电机" style="rounded=0;whiteSpace=wrap;html=1;sketch=1;hachureGap=4;pointerEvents=0;fontFamily=Architects Daughter;fontSource=https%3A%2F%2Ffonts.googleapis.com%2Fcss%3Ffamily%3DArchitects%2BDaughter;fontSize=20;" vertex="1" parent="1">
          <mxGeometry x="289" y="242" width="103" height="44" as="geometry" />
        </mxCell>
        <mxCell id="aUpF9cuh66uXq_9mSWLE-16" value="口罩货架" style="rounded=0;whiteSpace=wrap;html=1;sketch=1;hachureGap=4;pointerEvents=0;fontFamily=Architects Daughter;fontSource=https%3A%2F%2Ffonts.googleapis.com%2Fcss%3Ffamily%3DArchitects%2BDaughter;fontSize=20;" vertex="1" parent="1">
          <mxGeometry x="291" y="318" width="103" height="44" as="geometry" />
        </mxCell>
        <mxCell id="aUpF9cuh66uXq_9mSWLE-17" value="" style="endArrow=classic;startArrow=classic;html=1;rounded=0;sketch=1;fontFamily=Architects Daughter;fontSource=https%3A%2F%2Ffonts.googleapis.com%2Fcss%3Ffamily%3DArchitects%2BDaughter;fontSize=20;startSize=14;endSize=14;sourcePerimeterSpacing=8;targetPerimeterSpacing=8;edgeStyle=none;curved=1;entryX=0.5;entryY=1;entryDx=0;entryDy=0;" edge="1" parent="1" target="aUpF9cuh66uXq_9mSWLE-10">
          <mxGeometry width="50" height="50" relative="1" as="geometry">
            <mxPoint x="101" y="323" as="sourcePoint" />
            <mxPoint x="233" y="317" as="targetPoint" />
          </mxGeometry>
        </mxCell>
      </root>
    </mxGraphModel>
  </diagram>
</mxfile>
